<svg width="420" height="320" viewBox="0 0 420 320" fill="none" xmlns="http://www.w3.org/2000/svg">
  <rect width="420" height="320" fill="#202020"/>
  <ellipse cx="137" cy="128" rx="76" ry="42" fill="#303542" stroke="#6D778C" stroke-width="5"/>
  <circle cx="112" cy="128" r="7" fill="#111827"/>
  <circle cx="141" cy="128" r="7" fill="#111827"/>
  <circle cx="170" cy="128" r="7" fill="#111827"/>
  <circle cx="305" cy="128" r="48" fill="#42B932" stroke="#121212" stroke-width="7"/>
  <path d="M299 157c0-22 25-22 25-47 0-21-17-36-42-36-18 0-32 7-43 19l22 23c6-7 11-10 19-10 9 0 15 5 15 13 0 14-24 16-24 38h28Z" fill="#132014"/>
  <circle cx="285" cy="193" r="13" fill="#132014"/>
  <path d="M96 269c9-75 28-166 67-213 14-17 38-26 58-17 52 24 87 126 105 225-87 31-166 32-230 5Z" fill="#111827"/>
  <path d="M128 243c7-61 24-135 55-174 12-15 29-21 42-14 40 20 68 101 84 184-66 22-126 23-181 4Z" fill="#1F2937"/>
  <path d="M181 65c28 9 49 42 64 79-18-32-42-60-75-71 4-4 7-6 11-8Z" fill="#E5E7EB"/>
  <ellipse cx="204" cy="149" rx="42" ry="48" fill="#0B1120"/>
  <path d="M209 119c20 5 32 19 37 41-10 20-29 33-49 31-18-2-30-16-34-35 11-24 25-36 46-37Z" fill="#F4CFA2"/>
  <path d="M170 139c17-27 39-36 68-27 0 26-12 47-41 61-9-14-18-24-27-34Z" fill="#050814"/>
  <path d="M198 133c7 10 7 27-1 42-10-12-15-26-13-42h14Z" fill="#111827"/>
  <path d="M222 151c10 2 17 1 24-3-3 13-10 23-22 30 3-10 3-19-2-27Z" fill="#9B6B43"/>
  <path d="M91 221c73-17 160-16 248 3l-20 65c-81-27-158-25-248 1l20-69Z" fill="#111827"/>
  <text x="78" y="260" fill="#F8FAFC" font-family="Arial Black, Arial, sans-serif" font-size="68" font-style="italic" font-weight="900" stroke="#111827" stroke-width="4">Nguoi La</text>
</svg>
