<svg width="420" height="320" viewBox="0 0 420 320" fill="none" xmlns="http://www.w3.org/2000/svg">
  <!-- Main chat bubble -->
  <rect x="35" y="55" width="230" height="165" rx="34" fill="#1E1B2E" stroke="#9E81F0" stroke-width="6"/>
  <path d="M75 220 L55 265 L112 226" fill="#1E1B2E" stroke="#9E81F0" stroke-width="5" stroke-linejoin="round"/>
  
  <!-- Three dots -->
  <circle cx="105" cy="137" r="13" fill="#9E81F0"/>
  <circle cx="150" cy="137" r="13" fill="#6B7280"/>
  <circle cx="195" cy="137" r="13" fill="#FB3AA2"/>

  <!-- Second bubble -->
  <rect x="268" y="28" width="130" height="100" rx="20" fill="#1E1B2E" stroke="#FB3AA2" stroke-width="5"/>
  <path d="M298 128 L288 158 L325 135" fill="#1E1B2E" stroke="#FB3AA2" stroke-width="4" stroke-linejoin="round"/>
  
  <!-- Heart -->
  <path d="M322 76 C322 66 312 60 306 68 C300 60 290 66 290 76 C290 90 306 100 306 100 C306 100 322 90 322 76Z" fill="#FB3AA2"/>

  <!-- Decor dots -->
  <circle cx="22" cy="38" r="6" fill="#9E81F0" opacity="0.5"/>
  <circle cx="382" cy="16" r="5" fill="#FB3AA2" opacity="0.4"/>
  <circle cx="395" cy="175" r="6" fill="#9E81F0" opacity="0.35"/>
  <circle cx="48" cy="250" r="5" fill="#FB3AA2" opacity="0.4"/>

  <!-- Brand text -->
  <text x="210" y="295" fill="#F1F5F9" font-family="system-ui, -apple-system, sans-serif" font-size="60" font-weight="800" text-anchor="middle" letter-spacing="2">Người Lạ</text>
</svg>
